Coordinates
version=1
nRows=21
nColumns=22
inDegrees=yes

Units are S.I. units (second, meters, Newtons, ...)
If the header above contains a line with 'inDegrees', this indicates whether rotational values are in degrees (yes) or radians (no).

endheader
time	pelvis_tilt	pelvis_list	pelvis_rotation	pelvis_tx	pelvis_ty	pelvis_tz	hip_flexion_r	hip_adduction_r	hip_rotation_r	knee_angle_r	ankle_angle_r	subtalar_angle_r	hip_flexion_l	hip_adduction_l	hip_rotation_l	knee_angle_l	ankle_angle_l	subtalar_angle_l	lumbar_extension	lumbar_bending	lumbar_rotation
      0.01000000	      0.99705486	     -3.12212399	     -5.65381000	     -1.30213020	      0.93943558	      0.01134565	      0.10934637	      3.64101267	     -1.38531157	     -9.15877490	      4.54492118	      1.21149843	     -0.35928683	     -4.74251891	    -12.28870464	    -11.43642879	      9.07017155	      2.98914770	     -5.10967038	      0.01290426	      2.45025553
      0.02000000	      1.00128738	     -3.12287347	     -5.66793091	     -1.30172953	      0.93940408	      0.01140597	      0.09974920	      3.64341453	     -1.35987569	     -9.20240467	      4.56008782	      1.20878660	     -0.39632523	     -4.73938127	    -12.28125506	    -11.43399760	      9.08701834	      2.98968088	     -5.10506551	      0.02107792	      2.41685662
      0.03000000	      1.02432688	     -3.11616724	     -5.68816340	     -1.30126042	      0.93938373	      0.01148458	      0.07305210	      3.63666981	     -1.33056419	     -9.26196355	      4.64607944	      1.19673256	     -0.47123427	     -4.72275690	    -12.26986139	    -11.40829683	      9.12344470	      2.97971800	     -5.12088373	      0.01577307	      2.40742024
      0.04000000	      1.02354319	     -3.11174782	     -5.70220862	     -1.30078377	      0.93934044	      0.01155470	      0.07258267	      3.63463657	     -1.30312856	     -9.32084454	      4.66210948	      1.19220902	     -0.51050784	     -4.71443082	    -12.27139488	    -11.40057460	      9.13168483	      2.97452724	     -5.11654324	      0.01945344	      2.35792555
      0.05000000	      1.02539840	     -3.08865265	     -5.71374182	     -1.30028207	      0.93928587	      0.01162014	      0.08579755	      3.61131207	     -1.28687378	     -9.41712478	      4.77756202	      1.17515916	     -0.56474301	     -4.68169553	    -12.25851090	    -11.36592257	      9.16105337	      2.95214046	     -5.11559298	     -0.00062615	      2.33885893
      0.06000000	      1.01403107	     -3.08108602	     -5.72033412	     -1.29976876	      0.93923027	      0.01170281	      0.09819938	      3.60888619	     -1.26432498	     -9.48339595	      4.79906179	      1.16936441	     -0.59535613	     -4.67359396	    -12.26106778	    -11.35447762	      9.17128890	      2.94621877	     -5.10327903	     -0.00203230	      2.28100896
      0.07000000	      0.97996065	     -3.04682866	     -5.71822742	     -1.29924352	      0.93912092	      0.01174989	      0.15936250	      3.57610915	     -1.28379161	     -9.59886345	      4.94462417	      1.14506048	     -0.60350182	     -4.63469037	    -12.22764501	    -11.33057922	      9.20825421	      2.92784965	     -5.06240964	     -0.02918663	      2.25160706
      0.08000000	      0.95880646	     -3.03875643	     -5.71510667	     -1.29868430	      0.93905443	      0.01182601	      0.17838711	      3.57370925	     -1.26838744	     -9.66528209	      4.96558603	      1.13736263	     -0.62515616	     -4.62931978	    -12.23145037	    -11.31768222	      9.22042758	      2.92475226	     -5.03853379	     -0.02931038	      2.18895690
      0.09000000	      0.90412009	     -3.00408751	     -5.70255441	     -1.29810798	      0.93891476	      0.01186465	      0.25865723	      3.54220625	     -1.31625348	     -9.78126822	      5.11484341	      1.10345140	     -0.60570916	     -4.59513971	    -12.18216724	    -11.30915607	      9.26523116	      2.92147265	     -4.96984096	     -0.05417553	      2.15581483
      0.10000000	      0.85664520	     -2.98069909	     -5.69437457	     -1.29749794	      0.93879675	      0.01191832	      0.31843388	      3.52372996	     -1.33933049	     -9.87802483	      5.19797531	      1.06675312	     -0.59478146	     -4.57580296	    -12.16365011	    -11.30666830	      9.29184140	      2.92272859	     -4.90882159	     -0.06458411	      2.10654483
      0.11000000	      0.83839095	     -2.97388875	     -5.69698200	     -1.29684109	      0.93872972	      0.01200403	      0.32621077	      3.52247524	     -1.32810801	     -9.94045050	      5.22233662	      1.05745123	     -0.62594621	     -4.57282305	    -12.16552184	    -11.29841072	      9.31050241	      2.92487142	     -4.88107605	     -0.05914537	      2.05996860
      0.12000000	      0.80905014	     -2.94948714	     -5.70163960	     -1.29616295	      0.93861932	      0.01209059	      0.37029954	      3.50171525	     -1.36052629	    -10.05410126	      5.36011433	      1.01272507	     -0.64544882	     -4.55110770	    -12.13933177	    -11.29020992	      9.36595740	      2.94076806	     -4.83764417	     -0.07426588	      2.04386971
      0.13000000	      0.77763975	     -2.92961053	     -5.70870578	     -1.29546539	      0.93851124	      0.01220172	      0.41419592	      3.48919248	     -1.37655530	    -10.16540352	      5.45930505	      0.95254234	     -0.66196661	     -4.53798339	    -12.12781464	    -11.28760804	      9.40141501	      2.96029911	     -4.79439979	     -0.08251976	      2.00576019
      0.14000000	      0.74427057	     -2.91607831	     -5.71738563	     -1.29474968	      0.93839762	      0.01234110	      0.46009392	      3.48710182	     -1.38978060	    -10.27922960	      5.55695761	      0.88069585	     -0.67684656	     -4.53426588	    -12.11290962	    -11.28951807	      9.44559465	      2.98660097	     -4.75156290	     -0.08683850	      1.96869744
      0.15000000	      0.70354154	     -2.90569686	     -5.72418362	     -1.29402493	      0.93826816	      0.01251036	      0.52010364	      3.49250627	     -1.40506365	    -10.40795507	      5.66182794	      0.79221049	     -0.68276577	     -4.53887353	    -12.09219670	    -11.29565869	      9.49544698	      3.02220360	     -4.70447765	     -0.08943258	      1.92567591
      0.16000000	      0.62215204	     -2.88424009	     -5.72102296	     -1.29331438	      0.93807468	      0.01269663	      0.63474662	      3.49451076	     -1.42493636	    -10.55518558	      5.76957460	      0.61690737	     -0.62626655	     -4.54281257	    -12.07308241	    -11.33046562	      9.53969661	      3.09168346	     -4.61440547	     -0.10116851	      1.85597688
      0.17000000	      0.57851658	     -2.88847735	     -5.73261303	     -1.29257319	      0.93793351	      0.01293411	      0.70850284	      3.52287706	     -1.42917631	    -10.70913418	      5.87545799	      0.54287633	     -0.63926427	     -4.56720489	    -12.03328625	    -11.32617137	      9.60221070	      3.12438200	     -4.57365039	     -0.08895352	      1.83086045
      0.18000000	      0.46242758	     -2.85534605	     -5.72998470	     -1.29186266	      0.93767241	      0.01319532	      0.88399993	      3.52366210	     -1.44665208	    -10.90041155	      6.01544860	      0.32916001	     -0.53910010	     -4.56970112	    -12.01534305	    -11.37383333	      9.65547372	      3.21637668	     -4.44987082	     -0.11651073	      1.75276973
      0.19000000	      0.36961440	     -2.83884108	     -5.74310691	     -1.29111873	      0.93744217	      0.01352220	      1.03420420	      3.54354709	     -1.44020684	    -11.09747864	      6.14277909	      0.16589943	     -0.48847093	     -4.58618538	    -11.98644665	    -11.38889165	      9.71862801	      3.28493616	     -4.35524514	     -0.12973663	      1.71281541
      0.20000000	      0.30749114	     -2.83436717	     -5.76316095	     -1.29032492	      0.93725867	      0.01391264	      1.14581460	      3.57635262	     -1.42985904	    -11.29081305	      6.24225935	      0.07132725	     -0.49899697	     -4.61019961	    -11.94211725	    -11.36079402	      9.77081947	      3.32538070	     -4.29653244	     -0.13839288	      1.70241011
      0.21000000	      0.18205519	     -2.78252520	     -5.76978813	     -1.28951472	      0.93696756	      0.01431602	      1.33460867	      3.56658652	     -1.42038609	    -11.49766646	      6.38560594	     -0.15309964	     -0.41388047	     -4.59706481	    -11.93970669	    -11.37251094	      9.80533222	      3.42096215	     -4.15523802	     -0.19425993	      1.64216150
